<svg xmlns="http://www.w3.org/2000/svg" width="62.827" height="85.828" viewBox="0 0 62.827 85.828"><defs><style>.a{fill:#2bbbad;}</style></defs><g transform="translate(0)"><g transform="translate(0)"><path class="a" d="M35.006,18.795a2.852,2.852,0,0,0,.24.57,2.378,2.378,0,0,0,.833.821,2.464,2.464,0,0,0,1.009.354,2.515,2.515,0,0,0,.958-.074l.205-.068.108-.04.086-.04.1-.051.091-.057a.952.952,0,0,0,.165-.12,1.711,1.711,0,0,0,.445-.57,1.546,1.546,0,0,0,.165-.861h0v-.068a1.665,1.665,0,0,0-.057-.24V18.3a.074.074,0,0,0-.04-.051.131.131,0,0,0-.068,0,.1.1,0,0,0-.08.108h0v.068a1.078,1.078,0,0,1,0,.211,1.317,1.317,0,0,1-.24.724h0a1.249,1.249,0,0,1-.394.354l-.125.068h-.137l-.091.029h-.1l-.165.029a1.711,1.711,0,0,1-.7-.057,1.859,1.859,0,0,1-.639-.336,1.489,1.489,0,0,1-.428-.6,1.985,1.985,0,0,1-.1-.394,2.811,2.811,0,0,1-.029-.433,2.39,2.39,0,0,1,.211-.85,2.281,2.281,0,0,1,.542-.73,2.589,2.589,0,0,1,.382-.274l.211-.108.2-.074.143-.046h.1a2.042,2.042,0,0,1,.257-.051,3.9,3.9,0,0,1,.513-.046,3.16,3.16,0,0,1,1.876.639,4.175,4.175,0,0,1,.753.753,4.317,4.317,0,0,1,.3.422c.051.074.091.148.137.222a2.074,2.074,0,0,1,.114.222l.12.251h0v.029a.171.171,0,0,0,0,.057.141.141,0,0,0,.04.114c.04.04.051.148.08.228l.057.228a4.192,4.192,0,0,1,.114.958A5.5,5.5,0,0,1,41.9,21.8a5.6,5.6,0,0,1-.684,1.489,4.62,4.62,0,0,1-.861.975,2.56,2.56,0,0,1-.262.205,3.815,3.815,0,0,1-.53.325c-.051.034-.114.051-.165.08l-.074.034-.068.029-.1.034h-.108l-.291.1h-.04l-.165.063a1.791,1.791,0,0,0-.884,2.333,1.711,1.711,0,0,0,.753.821c.924-.251,1.859-.468,2.795-.633A7.129,7.129,0,0,0,42.5,26.6a8.229,8.229,0,0,0,1.038-1.306,2.766,2.766,0,0,1,.61-1.141,8.555,8.555,0,0,0,.57-1.665,8.121,8.121,0,0,0,.177-2.749,6.273,6.273,0,0,0-.183-1.009q-.051-.211-.12-.428l-.131-.359-.154-.348-.183-.359c-.057-.1-.1-.177-.183-.3s-.143-.217-.217-.325a3.045,3.045,0,0,0-.234-.3c-.16-.194-.331-.388-.513-.57a6.1,6.1,0,0,0-1.272-.958,5.475,5.475,0,0,0-1.546-.57,5.133,5.133,0,0,0-1.671-.068,5.321,5.321,0,0,0-1.551.456c-.137.068-.251.131-.371.205s-.222.143-.331.222a4.243,4.243,0,0,0-.57.542,3.542,3.542,0,0,0-.679,1.329,3.376,3.376,0,0,0-.114,1.317,3,3,0,0,0,.131.582Z" transform="translate(-14.976 -6.059)"/><path class="a" d="M52.38,11.657c.736-1.933,2.641-2.373,3.142-4.426S54.855,3.49,52.454,0h0C49.99,3.462,48.815,5.19,49.26,7.192s2.4,2.527,3.1,4.466Z" transform="translate(-21.126)"/><path class="a" d="M14,13.979h.034V13.95Z" transform="translate(-6.015 -5.994)"/><path class="a" d="M26.5,19.82c.485.217.964.433,1.443.662,0,0-1.106,3.758,1.015,6.114A6.127,6.127,0,0,1,26.5,19.82Z" transform="translate(-11.275 -8.516)"/><path class="a" d="M57.577,23.848a2.789,2.789,0,0,1,.9,1.6,8.612,8.612,0,0,0,.947,1.141,7.568,7.568,0,0,0,1.232.992,28.223,28.223,0,0,1,2.92.656,1.711,1.711,0,0,0,.776-1.044,1.768,1.768,0,0,0-1.141-2.2l-.3-.1H62.8l-.1-.034a.707.707,0,0,1-.148-.057l-.171-.074a3.821,3.821,0,0,1-.816-.513l-.114-.091h0a4.619,4.619,0,0,1-.781-.855,5.526,5.526,0,0,1-.759-1.489A5.789,5.789,0,0,1,59.6,19.9a4.8,4.8,0,0,1,.108-.987,1.18,1.18,0,0,1,.057-.245c.017-.08.057-.16.08-.24s0-.08.04-.114v-.063a.063.063,0,0,1,0-.029h0l.12-.257A4.431,4.431,0,0,1,61.369,16.2a3.331,3.331,0,0,1,2.019-.7,4.711,4.711,0,0,1,.57.046l.274.057h.108l.143.046a1.836,1.836,0,0,1,.24.091,1.808,1.808,0,0,1,.234.12,2.481,2.481,0,0,1,1.238,2.065,2.1,2.1,0,0,1-.04.468,1.979,1.979,0,0,1-.125.439,1.711,1.711,0,0,1-.508.667,1.928,1.928,0,0,1-1.5.371l-.177-.034H63.77l-.1-.034-.08-.034h-.063l-.137-.08A1.352,1.352,0,0,1,63,19.274a1.1,1.1,0,0,1-.108-.217,1.34,1.34,0,0,1-.091-.57,1.8,1.8,0,0,1,.034-.211v-.068h0a.091.091,0,0,0-.057-.114.1.1,0,0,0-.131.051.314.314,0,0,1-.034.08h0a1.592,1.592,0,0,0-.068.2,1.546,1.546,0,0,0,.108.97A1.711,1.711,0,0,0,63.1,20c.051.046.108.086.171.131l.1.068a.188.188,0,0,1,.057.034h.046l.08.046.12.051.222.08a2.629,2.629,0,0,0,1.027.1,2.481,2.481,0,0,0,1.135-.279,2.572,2.572,0,0,0,.9-.9,1.346,1.346,0,0,0,.08-.148.307.307,0,0,0,0-.063.3.3,0,0,0,.046-.068,2.687,2.687,0,0,0,.12-.3,3.479,3.479,0,0,0,.148-.65,3.559,3.559,0,0,0-.873-2.766,3.81,3.81,0,0,0-.6-.57,3.074,3.074,0,0,0-.359-.245c-.125-.074-.245-.143-.4-.217l-.2-.091h-.04l-.068-.029-.1-.034c-.131-.051-.268-.091-.4-.137a6.792,6.792,0,0,0-.85-.171,5.521,5.521,0,0,0-1.757.086,5.7,5.7,0,0,0-1.608.616,6.171,6.171,0,0,0-1.3,1,5.665,5.665,0,0,0-.525.57c-.086.1-.16.205-.24.314a2.73,2.73,0,0,0-.211.331l-.188.3c-.057.131-.12.251-.183.376a3.775,3.775,0,0,0-.148.365c-.046.12-.091.24-.131.365a1.78,1.78,0,0,0-.057.211,6.627,6.627,0,0,0-.24,1.26,8.521,8.521,0,0,0,.217,2.795A8.252,8.252,0,0,0,57.577,23.848Z" transform="translate(-24.424 -5.934)"/><path class="a" d="M23.636,29.038a30.575,30.575,0,0,1,13.614-3.359A28.978,28.978,0,0,1,50.994,29.1c1.466-2.977,3.023-5.926,4.682-8.823Q58,16.309,60.587,12.47C57.336,13.782,54,15.4,54,15.4h0c1.295,2.384,0,5.407-2.07,6.844a7.7,7.7,0,0,1-5.7,1.585,7.049,7.049,0,0,1-3.165-1.215h0a12.621,12.621,0,0,1-4.306-5.7,17.287,17.287,0,0,1-.707-2.047,20.053,20.053,0,0,1-.719-4.426h0a20.412,20.412,0,0,1-.73,4.466,18.045,18.045,0,0,1-.81,2.281,12.045,12.045,0,0,1-4.62,5.7,6.781,6.781,0,0,1-2.76.987,7.682,7.682,0,0,1-5.7-1.585c-2.093-1.449-3.371-4.471-2.076-6.844h0s-3.314-1.677-6.57-2.977q2.584,3.838,4.916,7.808Q21.44,24.6,23.636,29.038Z" transform="translate(-6.041 -4.486)"/><path class="a" d="M95.674,13.979H95.64V13.95Z" transform="translate(-41.094 -5.994)"/><path class="a" d="M81.148,19.82c-.485.217-.964.433-1.443.662,0,0,1.1,3.758-1.015,6.114A6.1,6.1,0,0,0,81.148,19.82Z" transform="translate(-33.811 -8.516)"/><path class="a" d="M41.859,21.591a.633.633,0,1,1-.627-.7.667.667,0,0,1,.627.7Z" transform="translate(-17.443 -8.976)"/><ellipse class="a" cx="0.627" cy="0.701" rx="0.627" ry="0.701" transform="translate(38.177 11.84)"/><path class="a" d="M31.413,103.157A31.413,31.413,0,1,1,62.827,71.743a31.413,31.413,0,0,1-31.413,31.413Zm0-61.389A29.982,29.982,0,1,0,61.4,71.747a29.982,29.982,0,0,0-29.982-29.98Z" transform="translate(0 -17.329)"/><path class="a" d="M20.925,79.753h1.614a42.312,42.312,0,0,1,1.4-8.093,6.5,6.5,0,0,1,2.954-3.821q2.116-1.255,6.485-1.249h3.815v40.031a12.239,12.239,0,0,1-.57,4.277,3.211,3.211,0,0,1-2,1.876l-.086.029H46.35l-.091-.029a3.205,3.205,0,0,1-1.99-1.876,12.079,12.079,0,0,1-.57-4.277V66.59h3.815q4.374,0,6.479,1.22a6.513,6.513,0,0,1,2.96,3.85,43.242,43.242,0,0,1,1.392,8.093h1.614q-.205-2.236-.205-5.777,0-3.992.479-9.005-5.846.205-19.762.211-14.03,0-19.87-.211a85.155,85.155,0,0,1,.519,9.005Q21.136,77.534,20.925,79.753Z" transform="translate(-8.851 -27.916)"/></g></g></svg>